<svg xmlns="http://www.w3.org/2000/svg" viewBox="0 0 1024 1024">
  <path
    id="linkPath"
    fill="none"
    stroke="#ffffff"
    stroke-width="22"
    stroke-linecap="round"
    stroke-linejoin="round"
    d="
      M 613.80 370.89
      A 0.24 0.24 0.0 0 0 614.03 371.25
      Q 624.28 369.91 631.24 369.21
      C 637.91 368.54 648.63 368.75 657.23 369.68
      Q 678.81 372.02 699.81 378.46
      Q 713.69 382.72 731.63 388.61
      Q 733.19 389.12 740.36 390.86
      C 752.01 393.67 766.51 392.10 773.28 381.49
      Q 779.69 371.43 780.60 370.11
      Q 781.81 368.36 784.13 367.21
      A 2.43 2.36 29.9 0 1 785.11 366.96
      Q 793.18 366.73 792.85 375.28
      Q 791.96 398.57 792.17 422.01
      Q 792.84 497.06 793.24 510.00
      C 793.45 516.80 794.32 520.77 791.60 525.11
      C 790.78 526.41 788.44 527.03 786.95 526.68
      Q 782.42 525.62 780.51 521.98
      Q 779.30 519.70 771.57 500.40
      Q 768.34 492.32 761.49 478.72
      Q 755.66 467.11 749.24 458.06
      Q 737.37 441.30 722.59 428.42
      Q 697.45 406.51 664.63 399.14
      Q 650.86 396.93 630.25 397.12
      Q 619.11 398.89 573.47 428.20
      Q 546.51 466.99 551.67 498.59
      Q 583.47 519.53 660.97 552.51
      Q 760.13 600.14 819.99 656.67
      Q 838.73 709.25 821.10 790.37
      Q 743.87 850.90 649.96 864.73
      Q 543.57 839.91 499.01 829.35
      Q 432.59 846.50 444.33 655.08
      Q 509.29 760.25 610.73 827.31
      Q 715.24 815.99 737.73 747.81
      Q 688.04 696.52 568.10 644.39
      Q 486.93 595.19 468.14 577.91
      Q 401.27 680.72 263.62 883.12
      Q 122.38 994.55 46.26 998.52
      Q 13.75 940.90 26.63 901.15
      Q 108.50 975.64 211.86 918.61
      Q 325.87 762.38 471.53 542.77
      Q 596.09 363.63 731.54 170.62
      Q 827.27 89.55 915.65 47.00
      Q 993.66 38.39 930.71 124.33
      Q 928.70 85.50 920.97 48.06
      Z
    "
  />
</svg>
