<?xml version="1.0" encoding="UTF-8" standalone="no"?>
<!DOCTYPE svg PUBLIC "-//W3C//DTD SVG 1.1//EN" "http://www.w3.org/Graphics/SVG/1.1/DTD/svg11.dtd">
<svg xmlns="http://www.w3.org/2000/svg" version="1.1" viewBox="0.00 0.00 1024.00 1024.00">
<path fill="#ffffff" d="
  M 613.80 370.89
  A 0.24 0.24 0.0 0 0 614.03 371.25
  Q 624.28 369.91 631.24 369.21
  C 637.91 368.54 648.63 368.75 657.23 369.68
  Q 678.81 372.02 699.81 378.46
  Q 713.69 382.72 731.63 388.61
  Q 733.19 389.12 740.36 390.86
  C 752.01 393.67 766.51 392.10 773.28 381.49
  Q 779.69 371.43 780.60 370.11
  Q 781.81 368.36 784.13 367.21
  A 2.43 2.36 29.9 0 1 785.11 366.96
  Q 793.18 366.73 792.85 375.28
  Q 791.96 398.57 792.17 422.01
  Q 792.84 497.06 793.24 510.00
  C 793.45 516.80 794.32 520.77 791.60 525.11
  C 790.78 526.41 788.44 527.03 786.95 526.68
  Q 782.42 525.62 780.51 521.98
  Q 779.30 519.70 771.57 500.40
  Q 768.34 492.32 761.49 478.72
  Q 755.66 467.11 749.24 458.06
  Q 737.37 441.30 722.59 428.42
  Q 697.45 406.51 664.63 399.14
  C 660.29 398.16 657.04 397.95 652.67 397.23
  Q 650.86 396.93 647.83 396.85
  Q 637.34 396.57 630.25 397.12
  Q 626.30 397.42 619.11 398.89
  C 599.87 402.80 585.58 413.01 573.47 428.20
  Q 558.26 447.27 546.51 466.99
  Q 543.76 471.61 543.04 477.45
  C 542.08 485.27 546.11 492.93 551.67 498.59
  C 560.69 507.76 572.13 513.94 583.47 519.53
  C 608.35 531.81 634.82 542.02 660.97 552.51
  C 695.67 566.43 729.04 581.61 760.13 600.14
  C 783.47 614.06 805.82 633.10 819.99 656.67
  Q 834.78 681.25 838.73 709.25
  Q 840.61 722.54 838.54 739.83
  Q 835.19 767.71 821.10 790.37
  C 803.46 818.74 775.61 839.40 743.87 850.90
  Q 698.85 867.20 649.96 864.73
  Q 615.23 862.97 581.42 852.32
  Q 570.73 848.95 543.57 839.91
  Q 527.59 834.60 513.95 831.54
  Q 509.28 830.50 499.01 829.35
  C 483.52 827.63 464.44 830.55 454.64 844.59
  C 450.37 850.71 448.32 855.56 442.24 856.70
  C 435.31 858.01 432.47 852.63 432.59 846.50
  Q 433.42 804.32 432.71 781.99
  C 432.26 768.09 432.84 757.15 432.97 740.00
  Q 433.15 714.89 434.90 665.54
  Q 435.08 660.48 436.24 658.72
  C 438.05 655.96 440.95 654.40 444.33 655.08
  Q 449.26 656.06 451.46 661.06
  C 458.52 677.08 466.43 692.77 474.45 707.62
  Q 490.40 737.11 509.29 760.25
  Q 524.03 778.32 543.01 793.19
  Q 573.49 817.07 610.73 827.31
  C 631.88 833.14 653.39 834.80 674.93 831.63
  Q 697.33 828.33 715.24 815.99
  C 725.07 809.22 734.18 798.01 738.06 786.28
  Q 744.40 767.13 737.73 747.81
  Q 731.01 728.33 715.01 714.66
  Q 703.18 704.55 688.04 696.52
  C 669.35 686.61 650.41 678.51 629.24 670.02
  Q 589.78 654.17 568.10 644.39
  Q 543.35 633.22 517.36 617.26
  Q 509.03 612.14 501.80 606.73
  Q 489.77 597.75 486.93 595.19
  Q 480.70 589.59 473.95 582.88
  Q 471.36 580.30 469.38 577.75
  A 0.73 0.72 -52.2 0 0 468.14 577.91
  Q 467.71 578.89 467.39 579.38
  Q 450.22 605.39 401.27 680.72
  Q 360.30 743.77 328.01 791.77
  Q 326.86 793.49 300.28 832.03
  Q 281.95 858.62 263.62 883.12
  Q 251.14 899.80 235.52 917.26
  Q 218.05 936.80 202.04 950.27
  Q 187.47 962.54 166.40 975.11
  Q 145.75 987.43 122.38 994.55
  Q 94.63 1003.01 66.75 1001.74
  Q 56.91 1001.29 46.26 998.52
  C 34.14 995.37 22.71 988.67 17.39 977.15
  C 15.38 972.80 13.93 966.59 13.89 961.08
  Q 13.83 952.89 13.75 940.90
  Q 13.63 923.87 14.85 919.14
  Q 17.57 908.58 26.63 901.15
  C 34.82 894.43 43.86 891.43 54.28 890.24
  C 69.15 888.54 91.67 894.08 95.48 911.79
  C 97.83 922.70 92.69 929.85 86.49 940.97
  Q 81.21 950.44 83.50 960.23
  C 86.10 971.31 98.16 975.83 108.50 975.64
  C 116.80 975.50 125.25 973.70 133.56 970.68
  C 163.38 959.86 189.70 941.57 211.86 918.61
  C 229.76 900.08 245.62 879.80 260.39 858.61
  Q 290.76 815.01 325.87 762.38
  C 356.53 716.43 387.41 668.30 417.07 623.83
  Q 453.62 569.00 471.53 542.77
  Q 491.65 513.33 527.33 461.57
  Q 544.47 436.69 596.09 363.63
  Q 609.35 344.86 616.73 334.27
  Q 696.60 219.71 700.20 214.63
  Q 727.73 175.82 731.54 170.62
  Q 747.41 148.97 764.84 128.09
  Q 777.88 112.47 791.27 99.05
  A 1.69 0.10 -55.3 0 0 791.95 98.18
  Q 792.60 97.24 793.55 96.31
  Q 811.42 78.67 822.30 69.56
  Q 826.33 66.19 836.18 59.06
  C 859.93 41.87 886.35 29.86 915.00 23.00
  Q 919.12 22.02 933.89 20.44
  Q 943.03 19.46 954.88 20.42
  C 969.40 21.61 984.66 26.59 993.66 38.39
  C 999.30 45.79 1000.55 54.81 1000.90 63.99
  Q 1001.12 69.95 1000.83 96.51
  Q 1000.61 116.64 984.71 127.62
  Q 976.12 133.55 964.05 134.86
  Q 944.62 136.99 930.71 124.33
  Q 925.35 119.45 923.49 113.58
  C 920.33 103.65 922.82 94.35 928.70 85.50
  C 931.98 80.57 936.08 73.85 936.28 68.24
  C 936.64 58.27 930.83 50.22 920.97 48.06
  Q 918.99 47.63 917.20 47.21
  A 8.28 7.78 -35.5 0 0 915.65 47.00
  C 901.42 46.48 888.38 50.60 875.80 56.77
  Q 849.65 69.59 827.27 89.55
  Q 816.36 99.28 812.83 102.83
  Q 782.57 133.22 760.84 161.07
  C 752.24 172.08 741.93 186.56 732.89 199.43
  Q 699.18 247.45 646.61 323.61
  Q 629.16 348.91 618.65 363.63
  Q 615.41 368.16 613.80 370.89
  Z"
/>
<path fill="#ffffff" d="
  M 492.36 161.07
  Q 492.97 162.07 492.95 163.18
  Q 492.84 171.06 492.46 194.00
  Q 491.80 234.49 491.96 274.50
  Q 492.07 303.21 492.69 319.75
  Q 492.87 324.54 490.18 327.22
  A 3.27 3.15 8.7 0 1 489.23 327.89
  C 481.58 331.48 477.72 324.93 475.27 318.96
  Q 466.68 297.95 458.05 279.95
  Q 453.35 270.15 446.32 258.67
  C 423.31 221.03 384.59 194.85 341.47 186.26
  Q 336.02 185.17 332.65 184.97
  C 328.56 184.72 325.29 184.09 320.79 183.98
  Q 294.01 183.37 270.25 194.96
  C 255.44 202.18 241.48 213.74 234.69 229.00
  C 230.05 239.42 231.23 252.31 235.74 262.71
  C 241.59 276.23 251.90 288.09 263.05 297.20
  Q 275.96 307.74 289.63 315.87
  C 306.50 325.90 323.15 333.53 344.41 343.34
  Q 386.11 362.59 407.77 373.99
  Q 431.27 386.36 450.54 400.22
  Q 468.44 413.09 484.24 430.00
  C 491.42 437.68 498.36 446.54 501.69 456.50
  Q 504.33 464.36 501.33 473.35
  C 499.27 479.52 495.99 484.40 492.39 489.86
  Q 477.62 512.30 448.34 556.35
  Q 429.42 584.83 423.32 593.07
  Q 397.77 627.64 357.84 639.52
  Q 345.17 643.29 328.45 644.51
  Q 314.16 645.56 298.61 643.84
  C 274.39 641.16 251.20 634.56 228.25 625.28
  Q 225.78 624.28 218.78 621.78
  C 207.02 617.58 194.84 613.96 183.73 613.19
  Q 178.62 612.83 171.13 614.66
  C 162.16 616.86 155.33 622.58 150.29 629.56
  C 148.30 632.31 146.50 637.03 143.02 638.98
  Q 138.02 641.79 132.95 637.98
  A 2.75 2.71 -87.5 0 1 132.27 637.23
  Q 130.74 634.79 130.97 630.76
  Q 131.92 614.20 132.09 595.50
  Q 132.33 570.87 131.14 463.60
  Q 131.07 458.14 136.89 455.34
  A 2.63 2.57 -57.0 0 1 138.00 455.09
  Q 146.43 455.17 148.85 461.95
  Q 157.69 486.74 168.92 509.81
  Q 177.58 527.59 187.87 542.13
  C 215.45 581.12 257.53 606.91 304.47 615.42
  C 307.28 615.93 309.67 616.03 313.62 616.53
  Q 334.40 619.11 355.74 614.46
  Q 369.41 611.49 383.65 603.66
  C 402.67 593.21 420.43 571.63 417.92 548.53
  Q 417.47 544.37 414.96 537.58
  C 411.32 527.71 403.76 518.02 396.47 511.28
  C 381.81 497.73 366.58 488.82 347.11 478.13
  Q 333.49 470.65 308.76 458.53
  C 285.90 447.33 261.04 435.52 237.52 422.24
  C 215.50 409.81 195.47 395.71 178.43 376.86
  Q 159.70 356.16 152.00 329.58
  Q 145.48 307.11 147.43 282.37
  Q 147.94 275.84 151.74 261.46
  C 158.34 236.47 174.90 213.44 194.62 196.86
  C 216.73 178.28 244.24 165.68 272.39 160.46
  Q 289.59 157.26 309.00 157.30
  Q 340.17 157.37 373.05 165.96
  Q 381.57 168.19 399.74 174.70
  Q 423.58 183.26 426.25 184.00
  Q 434.02 186.18 435.49 186.52
  Q 441.07 187.80 447.72 188.12
  Q 454.26 188.43 459.79 186.16
  C 470.40 181.80 474.00 173.51 479.17 162.68
  C 481.56 157.68 489.12 155.79 492.36 161.07
  Z"
/>
</svg>
